<svg fill="#000000" xmlns="http://www.w3.org/2000/svg"  viewBox="0 0 16 16" width="30px" height="30px"><path d="M 7.5 1 C 4.8666667 1 2.3144531 2.0351563 2.3144531 2.0351562 A 0.50005 0.50005 0 0 0 2 2.5 L 2 7.5 C 2 9.7083333 3.3493439 11.556375 4.6464844 12.853516 C 5.9436248 14.150656 7.2421875 14.929686 7.2421875 14.929688 A 0.50005 0.50005 0 0 0 7.7578125 14.929688 C 7.7578125 14.929688 9.0563748 14.150656 10.353516 12.853516 C 11.650656 11.556375 13 9.7083333 13 7.5 L 13 2.5 A 0.50005 0.50005 0 0 0 12.685547 2.0351562 C 12.685547 2.0351562 10.133333 1 7.5 1 z M 7.5 2 C 9.6218368 2 11.570237 2.7048761 12 2.8652344 L 12 7.5 C 12 9.2916667 10.849344 10.943625 9.6464844 12.146484 C 8.9296161 12.863353 8.3973276 13.257439 8 13.527344 L 8 11 L 7 11 L 7 13.527344 C 6.6026724 13.257439 6.0703839 12.863353 5.3535156 12.146484 C 4.1506561 10.943625 3 9.2916667 3 7.5 L 3 2.8652344 C 3.4297634 2.7048761 5.3781632 2 7.5 2 z M 4.625 2.75 C 3.8666667 2.75 3.2773437 3.0527344 3.2773438 3.0527344 L 3.7226562 3.9472656 C 3.7226562 3.9472656 4.1333333 3.75 4.625 3.75 C 5.1166667 3.75 5.62727 3.8717275 6.0527344 4.7226562 L 6.9472656 4.2773438 C 6.37273 3.1282726 5.3833333 2.75 4.625 2.75 z M 10.375 2.75 C 9.6166667 2.75 8.62727 3.1282726 8.0527344 4.2773438 L 8.9472656 4.7226562 C 9.37273 3.8717274 9.8833333 3.75 10.375 3.75 C 10.866667 3.75 11.277344 3.9472656 11.277344 3.9472656 L 11.722656 3.0527344 C 11.722656 3.0527344 11.133333 2.75 10.375 2.75 z M 5 5 C 4.39 5 4 5.5 4 5.5 C 4 5.5 4.39 6 5 6 C 5.61 6 6 5.5 6 5.5 C 6 5.5 5.61 5 5 5 z M 10 5 C 9.39 5 9 5.5 9 5.5 C 9 5.5 9.39 6 10 6 C 10.61 6 11 5.5 11 5.5 C 11 5.5 10.61 5 10 5 z M 7.4921875 8 A 0.50005 0.50005 0 0 0 7.1464844 8.1464844 L 6.2929688 9 L 5.7070312 9 L 4.8535156 8.1464844 L 4.1464844 8.8535156 L 5.1464844 9.8535156 A 0.50005 0.50005 0 0 0 5.5 10 L 6.5 10 A 0.50005 0.50005 0 0 0 6.8535156 9.8535156 L 7.5 9.2070312 L 8.1464844 9.8535156 A 0.50005 0.50005 0 0 0 8.5 10 L 9.5 10 A 0.50005 0.50005 0 0 0 9.8535156 9.8535156 L 10.853516 8.8535156 L 10.146484 8.1464844 L 9.2929688 9 L 8.7070312 9 L 7.8535156 8.1464844 A 0.50005 0.50005 0 0 0 7.4921875 8 z"/></svg>